<?xml version="1.0" encoding="UTF-8" standalone="no"?>
<!DOCTYPE svg PUBLIC "-//W3C//DTD SVG 1.1//EN" "http://www.w3.org/Graphics/SVG/1.1/DTD/svg11.dtd">
<svg width="100%" height="100%" viewBox="0 0 1080 1080" version="1.1" xmlns="http://www.w3.org/2000/svg" xmlns:xlink="http://www.w3.org/1999/xlink" xml:space="preserve" xmlns:serif="http://www.serif.com/" style="fill-rule:evenodd;clip-rule:evenodd;stroke-linejoin:round;stroke-miterlimit:2;">
    <g id="favicon" transform="matrix(-8.23763,0,0,7.03957,1444.9,-4902.38)">
        <path d="M103.233,843.255C103.226,843.264 103.218,843.272 103.21,843.281C106.82,842.637 109.109,837.189 108.319,831.123C108.088,829.35 107.619,827.718 106.981,826.313C106.354,824.452 104.944,822.766 102.749,821.256C99.677,819.144 95.138,818.088 89.133,818.088C81.604,818.088 71.072,820.503 57.537,825.334C57.26,817.391 57.122,808.031 57.122,797.254L57.745,750.176L57.537,721.581C72.365,725.681 83.336,727.732 90.45,727.732C94.401,727.732 97.792,726.936 100.622,725.344C102.732,724.855 104.832,722.901 106.282,720.028C106.683,719.336 106.979,718.631 107.169,717.913C107.251,717.675 107.328,717.434 107.401,717.188C109.095,711.459 107.74,705.687 104.379,704.201C103.984,703.806 103.562,703.608 103.112,703.608C102.136,703.608 101.648,703.995 101.648,704.769L102.234,706.294C102.331,706.584 102.38,706.923 102.38,707.311C102.38,709.198 101.135,710.445 98.645,711.05C96.154,711.655 91.296,711.957 84.069,711.957C73.523,711.957 63.44,711.493 53.82,710.566C53.039,710.468 52.478,710.419 52.136,710.419C51.452,710.419 50.952,710.59 50.634,710.933C50.317,711.275 50.061,714.45 49.865,720.459L49.279,742.298C49.084,750.896 48.986,761.156 48.986,773.077L49.499,837.054C49.499,837.933 50.622,838.373 52.868,838.373C54.821,838.373 58.801,837.983 64.807,837.201C74.426,835.883 83.508,835.224 92.053,835.224C96.301,835.224 99.084,835.541 100.402,836.176C101.721,836.811 102.38,837.909 102.38,839.472C102.38,839.814 102.282,840.253 102.087,840.79C101.794,841.474 101.648,841.938 101.648,842.182C101.648,842.914 102.087,843.281 102.966,843.281C103.056,843.281 103.145,843.272 103.233,843.255ZM116.464,842.592C116.552,842.609 116.642,842.618 116.733,842.618C117.612,842.618 118.051,842.251 118.051,841.519C118.051,841.275 117.905,840.811 117.612,840.127C117.417,839.59 117.319,839.151 117.319,838.809C117.319,837.246 117.978,836.148 119.296,835.513C120.615,834.878 123.398,834.561 127.646,834.561C136.191,834.561 145.273,835.22 154.892,836.538C160.898,837.32 164.877,837.71 166.831,837.71C169.077,837.71 170.2,837.271 170.2,836.391L170.712,772.414C170.712,760.493 170.615,750.233 170.419,741.635L169.834,719.796C169.638,713.787 169.382,710.612 169.064,710.27C168.747,709.928 168.247,709.756 167.563,709.756C167.221,709.756 166.66,709.805 165.878,709.903C156.259,710.83 146.176,711.294 135.629,711.294C128.403,711.294 123.544,710.992 121.054,710.387C118.564,709.782 117.319,708.536 117.319,706.648C117.319,706.26 117.368,705.921 117.465,705.631L118.051,704.106C118.051,703.332 117.563,702.945 116.586,702.945C116.066,702.945 115.582,703.21 115.135,703.741C111.922,705.364 110.655,711.018 112.315,716.632C112.411,716.955 112.515,717.272 112.625,717.582C112.754,717.994 112.918,718.402 113.117,718.806C114.627,722.175 117.011,724.442 119.374,724.844C122.143,726.327 125.435,727.069 129.249,727.069C136.363,727.069 147.334,725.018 162.162,720.918L161.954,749.513L162.577,796.591C162.577,807.368 162.439,816.728 162.162,824.671C148.627,819.841 138.095,817.425 130.566,817.425C124.561,817.425 120.022,818.481 116.95,820.593C114.692,822.146 113.264,823.886 112.666,825.811C112.061,827.183 111.616,828.763 111.392,830.477C110.602,836.542 112.892,841.99 116.501,842.634C116.489,842.62 116.476,842.606 116.464,842.592Z"/>
    </g>
</svg>
